<svg width="169.58" height="98.636" viewBox="0 0 169.58 98.636" xmlns="http://www.w3.org/2000/svg"><g id="svgGroup" stroke-linecap="round" fill-rule="evenodd" font-size="9pt" stroke="#f4683b" stroke-width="1mm" fill="#f4683b" style="stroke:#f4683b;stroke-width:1mm;fill:#f4683b"><path d="M 6.69 51.904 L 7.764 54.199 A 0.607 0.607 0 0 0 7.728 54.22 Q 7.573 54.312 6.927 54.748 A 131.031 131.031 0 0 0 6.836 54.81 A 5.879 5.879 0 0 0 6.198 55.315 Q 5.65 55.81 5.054 56.543 Q 4.102 57.715 3.296 59.546 Q 2.491 61.377 2.491 64.014 Q 2.491 66.651 3.491 68.726 Q 4.492 70.801 6.177 72.363 A 17.228 17.228 0 0 0 9.748 74.898 A 19.287 19.287 0 0 0 10.034 75.049 A 26.516 26.516 0 0 0 14.551 76.88 A 30.213 30.213 0 0 0 19.239 77.905 A 36.852 36.852 0 0 0 21.497 78.143 A 28.688 28.688 0 0 0 23.584 78.223 A 35.776 35.776 0 0 0 28.808 77.858 A 27.932 27.932 0 0 0 32.959 76.929 A 25.509 25.509 0 0 0 36.959 75.335 A 19.846 19.846 0 0 0 40.113 73.364 A 17.278 17.278 0 0 0 43.412 70.069 A 15.321 15.321 0 0 0 44.678 68.091 A 13.474 13.474 0 0 0 46.289 61.621 A 15.43 15.43 0 0 0 45.948 58.302 A 11.668 11.668 0 0 0 44.629 54.883 A 17.886 17.886 0 0 0 40.572 50.152 A 20.366 20.366 0 0 0 40.235 49.878 A 33.182 33.182 0 0 0 36.117 47.098 A 39.305 39.305 0 0 0 34.009 45.972 A 241.452 241.452 0 0 0 26.88 42.578 A 144.604 144.604 0 0 1 19.751 39.087 A 32.903 32.903 0 0 1 14.94 36.025 A 29.314 29.314 0 0 1 13.526 34.863 A 19.229 19.229 0 0 1 9.131 29.321 A 13.992 13.992 0 0 1 7.766 25.28 A 19.248 19.248 0 0 1 7.471 21.826 A 24.818 24.818 0 0 1 8.078 16.243 A 21.128 21.128 0 0 1 9.107 12.988 A 21.407 21.407 0 0 1 12.736 7.014 A 20.186 20.186 0 0 1 13.599 6.079 A 19.952 19.952 0 0 1 20.313 1.587 A 21.397 21.397 0 0 1 27.549 0.025 A 24.786 24.786 0 0 1 28.662 0 A 33.393 33.393 0 0 1 32.421 0.201 Q 34.378 0.423 36.074 0.89 A 19.676 19.676 0 0 1 36.621 1.05 A 19.517 19.517 0 0 1 39.72 2.284 A 14.797 14.797 0 0 1 42.359 3.98 A 11.83 11.83 0 0 1 45.825 8.496 Q 46.973 11.133 46.973 14.307 A 20.955 20.955 0 0 1 46.363 19.36 A 46.375 46.375 0 0 1 45.722 21.698 A 34.508 34.508 0 0 1 45.02 23.779 A 43.679 43.679 0 0 1 44.528 25.036 Q 44.069 26.152 43.653 26.953 A 131.389 131.389 0 0 0 43.503 27.242 Q 43.012 28.192 42.969 28.32 L 40.772 27.1 Q 40.772 27.057 41.199 26.197 A 119.187 119.187 0 0 1 41.333 25.928 A 20.829 20.829 0 0 0 41.734 25.075 Q 41.932 24.629 42.143 24.11 A 48.799 48.799 0 0 0 42.578 22.998 A 31.132 31.132 0 0 0 43.231 21.076 A 41.483 41.483 0 0 0 43.824 18.921 Q 44.385 16.651 44.385 14.307 A 12.671 12.671 0 0 0 44.031 11.266 A 10.89 10.89 0 0 0 43.433 9.497 Q 42.481 7.324 40.528 5.811 A 12.088 12.088 0 0 0 38.202 4.413 Q 37.09 3.897 35.772 3.517 A 20.24 20.24 0 0 0 35.596 3.467 Q 33.036 2.754 29.683 2.653 A 37.413 37.413 0 0 0 28.565 2.637 A 19.968 19.968 0 0 0 23.543 3.252 A 17.841 17.841 0 0 0 21.582 3.882 A 16.988 16.988 0 0 0 16.52 6.894 A 16.169 16.169 0 0 0 15.991 7.373 Q 13.623 9.619 12.256 12.671 A 15.852 15.852 0 0 0 10.91 18.442 A 18.566 18.566 0 0 0 10.889 19.336 A 11.432 11.432 0 0 0 11.244 22.235 A 9.697 9.697 0 0 0 12.012 24.243 A 14.452 14.452 0 0 0 14.775 27.946 A 16.412 16.412 0 0 0 15.039 28.198 Q 16.944 29.981 19.507 31.47 A 79.093 79.093 0 0 0 23.882 33.825 A 88.672 88.672 0 0 0 24.951 34.351 Q 27.832 35.742 30.884 37.085 A 105.008 105.008 0 0 1 36.817 39.917 A 53.872 53.872 0 0 1 42.261 43.14 A 24.808 24.808 0 0 1 45.735 45.96 A 22.124 22.124 0 0 1 46.729 46.997 Q 48.633 49.121 49.756 51.734 A 13.761 13.761 0 0 1 50.758 55.541 A 17.331 17.331 0 0 1 50.879 57.617 A 26.582 26.582 0 0 1 50.418 62.69 A 19.613 19.613 0 0 1 48.633 67.944 A 20.975 20.975 0 0 1 42.627 75.171 Q 38.867 78.027 33.887 79.419 Q 28.907 80.811 23.487 80.811 A 32.803 32.803 0 0 1 16.372 80.058 A 29.542 29.542 0 0 1 14.453 79.566 A 27.983 27.983 0 0 1 9.77 77.743 A 23.322 23.322 0 0 1 6.983 76.099 A 18.027 18.027 0 0 1 3.079 72.496 A 16.403 16.403 0 0 1 1.88 70.777 A 12.803 12.803 0 0 1 0 64.014 A 17.358 17.358 0 0 1 0.165 61.553 Q 0.354 60.237 0.758 59.127 A 9.843 9.843 0 0 1 1.001 58.521 Q 1.858 56.578 2.857 55.226 A 11.469 11.469 0 0 1 3.199 54.785 Q 4.395 53.32 5.469 52.637 Q 6.543 51.953 6.69 51.904 Z M 167.676 46.143 L 169.58 46.631 A 451.597 451.597 0 0 1 168.914 48.312 Q 168.56 49.199 168.165 50.181 A 786.335 786.335 0 0 1 168.14 50.244 A 53.887 53.887 0 0 1 166.794 53.302 A 61.134 61.134 0 0 1 166.284 54.346 Q 165.235 56.445 163.99 58.423 A 22.056 22.056 0 0 1 161.789 61.363 A 19.949 19.949 0 0 1 161.231 61.963 Q 159.717 63.526 157.959 64.478 A 7.775 7.775 0 0 1 154.199 65.43 A 9.708 9.708 0 0 1 150.904 64.839 A 11.389 11.389 0 0 1 150.293 64.6 A 13.79 13.79 0 0 1 146.631 66.602 A 12.014 12.014 0 0 1 143.743 67.255 A 14.941 14.941 0 0 1 142.188 67.334 A 9.58 9.58 0 0 1 141.221 67.288 Q 140.357 67.201 139.746 66.944 A 5.297 5.297 0 0 1 139.085 66.612 Q 138.75 66.412 138.494 66.179 A 2.898 2.898 0 0 1 138.306 65.991 A 3.889 3.889 0 0 1 137.906 65.477 A 2.814 2.814 0 0 1 137.598 64.844 Q 137.403 64.258 137.403 63.819 A 3.696 3.696 0 0 1 137.534 62.816 A 3.138 3.138 0 0 1 137.842 62.085 A 4.224 4.224 0 0 1 139.014 60.791 A 5.091 5.091 0 0 1 140.378 60.086 A 5.942 5.942 0 0 1 140.699 59.985 Q 141.651 59.717 142.676 59.717 A 8.408 8.408 0 0 1 145.85 60.327 A 48.187 48.187 0 0 1 148.78 61.621 A 17.716 17.716 0 0 0 150.443 59.095 A 20.24 20.24 0 0 0 150.782 58.447 A 24.269 24.269 0 0 0 152.246 54.81 A 28.954 28.954 0 0 0 153.15 51.074 Q 153.467 49.219 153.467 47.608 A 18.065 18.065 0 0 0 153.379 45.758 Q 153.184 43.872 152.557 42.714 A 4.245 4.245 0 0 0 152.222 42.188 A 4.985 4.985 0 0 0 151.366 41.286 A 3.267 3.267 0 0 0 149.268 40.527 A 6.366 6.366 0 0 0 146.325 41.264 A 8.066 8.066 0 0 0 145.581 41.699 A 10.557 10.557 0 0 0 144.153 42.842 Q 143.07 43.863 141.968 45.361 A 33.175 33.175 0 0 0 140.464 47.606 Q 139.77 48.733 139.062 50.044 A 64.641 64.641 0 0 0 138.208 51.685 A 103.062 103.062 0 0 0 136.724 54.769 Q 135.931 56.484 135.098 58.427 A 188.985 188.985 0 0 0 134.082 60.84 A 4.664 4.664 0 0 0 133.692 61.768 Q 133.545 62.256 133.301 62.695 Q 133.741 68.457 134.204 73.755 A 134.495 134.495 0 0 1 134.521 78.171 Q 134.632 80.194 134.659 82.013 A 78.687 78.687 0 0 1 134.668 83.203 A 54.57 54.57 0 0 1 134.526 87.296 Q 134.23 91.219 133.317 93.751 A 11.959 11.959 0 0 1 132.862 94.849 A 7.99 7.99 0 0 1 131.598 96.783 A 5.54 5.54 0 0 1 127.295 98.633 Q 125.83 98.633 124.756 97.949 A 5.498 5.498 0 0 1 123.116 96.318 A 6.468 6.468 0 0 1 122.974 96.094 A 8.057 8.057 0 0 1 122.262 94.556 A 10.491 10.491 0 0 1 121.924 93.335 A 15.382 15.382 0 0 1 121.609 90.94 A 18.158 18.158 0 0 1 121.582 89.942 A 26.499 26.499 0 0 1 121.759 86.963 Q 121.934 85.425 122.279 83.745 A 42.392 42.392 0 0 1 122.29 83.692 A 68.092 68.092 0 0 1 123.548 78.639 A 79.453 79.453 0 0 1 124.17 76.587 A 107.654 107.654 0 0 1 126.148 70.934 A 122.077 122.077 0 0 1 126.905 68.994 A 230.54 230.54 0 0 1 130.176 61.231 A 427.821 427.821 0 0 1 129.419 51.636 Q 129.102 46.924 129.102 42.529 A 43.727 43.727 0 0 1 129.154 40.318 Q 129.269 38.052 129.639 36.572 A 6.827 6.827 0 0 1 129.881 35.788 Q 130.182 35.003 130.606 34.67 A 1.095 1.095 0 0 1 131.299 34.424 A 1.608 1.608 0 0 1 131.534 34.443 Q 131.777 34.479 132.096 34.583 A 5.887 5.887 0 0 1 132.202 34.619 A 3.228 3.228 0 0 1 133.129 35.129 A 3.73 3.73 0 0 1 133.252 35.23 A 4.206 4.206 0 0 1 134.007 36.078 A 4.809 4.809 0 0 1 134.107 36.231 Q 134.473 36.817 134.473 37.598 A 16.14 16.14 0 0 1 134.118 40.915 A 18.394 18.394 0 0 1 133.936 41.699 A 26.705 26.705 0 0 1 132.585 45.636 A 29.303 29.303 0 0 1 132.471 45.899 Q 132.471 48.194 132.544 50.586 Q 132.617 52.979 132.764 55.42 A 89.545 89.545 0 0 1 134.625 51.737 Q 135.513 50.081 136.384 48.655 A 49.885 49.885 0 0 1 136.963 47.73 A 38.607 38.607 0 0 1 138.694 45.24 Q 139.879 43.677 141.065 42.505 Q 143.116 40.479 145.142 39.551 A 9.976 9.976 0 0 1 148.483 38.656 A 9.439 9.439 0 0 1 149.268 38.623 A 7.213 7.213 0 0 1 151.393 38.928 A 6.444 6.444 0 0 1 152.539 39.404 A 7.608 7.608 0 0 1 155.03 41.528 A 9.287 9.287 0 0 1 156.176 43.512 A 11.578 11.578 0 0 1 156.616 44.727 A 13.23 13.23 0 0 1 157.143 47.675 A 15.643 15.643 0 0 1 157.178 48.731 A 24.399 24.399 0 0 1 155.908 56.494 A 18.268 18.268 0 0 1 153.428 61.414 A 16.733 16.733 0 0 1 152.1 63.037 A 4.767 4.767 0 0 0 153.147 63.336 Q 153.632 63.419 154.183 63.427 A 8.101 8.101 0 0 0 154.297 63.428 Q 155.908 63.428 157.349 62.525 Q 158.789 61.621 160.083 60.132 Q 161.377 58.643 162.525 56.763 Q 163.672 54.883 164.624 52.954 A 75.458 75.458 0 0 0 165.841 50.372 A 64.39 64.39 0 0 0 166.333 49.243 Q 167.09 47.461 167.676 46.143 Z M 96.485 46.143 L 98.389 46.631 Q 97.559 48.828 96.68 51.27 A 110.642 110.642 0 0 1 94.8 56.128 A 52.421 52.421 0 0 1 92.627 60.742 A 25.092 25.092 0 0 1 91.097 63.259 A 20.637 20.637 0 0 1 90.064 64.624 A 12.996 12.996 0 0 1 88.317 66.384 A 10.891 10.891 0 0 1 87.012 67.31 A 7.02 7.02 0 0 1 83.429 68.31 A 8.329 8.329 0 0 1 83.301 68.311 A 10.581 10.581 0 0 1 82.011 68.237 Q 80.993 68.111 80.225 67.774 A 5.356 5.356 0 0 1 79.102 67.116 A 4.36 4.36 0 0 1 78.296 66.309 A 5.358 5.358 0 0 1 77.499 64.805 A 6.671 6.671 0 0 1 77.295 64.087 A 11.629 11.629 0 0 1 77.058 62.546 A 14.899 14.899 0 0 1 77.002 61.231 A 13.561 13.561 0 0 1 77.096 59.689 Q 77.216 58.641 77.491 57.446 Q 77.979 55.322 78.589 53.052 Q 79.199 50.781 79.688 48.511 A 23.2 23.2 0 0 0 80.054 46.332 A 17.201 17.201 0 0 0 80.176 44.336 A 3.828 3.828 0 0 0 80.015 43.208 A 3.329 3.329 0 0 0 79.663 42.432 A 1.654 1.654 0 0 0 78.665 41.7 Q 78.318 41.602 77.881 41.602 A 5.762 5.762 0 0 0 75.138 42.314 A 7.831 7.831 0 0 0 74.024 43.042 A 16.012 16.012 0 0 0 72.012 44.918 A 21.301 21.301 0 0 0 70.508 46.777 A 36.113 36.113 0 0 0 68.509 49.875 A 44.062 44.062 0 0 0 67.383 51.953 Q 65.918 54.834 64.698 57.691 A 122.466 122.466 0 0 0 63.277 61.156 A 102.339 102.339 0 0 0 62.525 63.135 Q 61.596 65.66 60.922 67.349 A 89.24 89.24 0 0 1 60.889 67.432 L 58.985 67.139 A 6.271 6.271 0 0 0 58.983 67.006 Q 58.979 66.791 58.96 66.48 A 10.532 10.532 0 0 1 58.95 66.252 Q 58.94 65.997 58.937 65.658 A 37.557 37.557 0 0 1 58.936 65.332 A 52.662 52.662 0 0 0 58.934 64.943 Q 58.93 64.345 58.913 63.554 A 144.579 144.579 0 0 0 58.911 63.501 A 87.297 87.297 0 0 1 58.897 62.612 Q 58.887 61.817 58.887 60.84 A 216.987 216.987 0 0 1 58.902 58.362 Q 58.942 54.932 59.082 50.284 A 714.077 714.077 0 0 1 59.131 48.731 A 239.369 239.369 0 0 1 59.41 42.672 Q 59.567 39.973 59.79 36.983 A 462.002 462.002 0 0 1 60.303 30.713 Q 60.694 25.586 61.475 21.948 A 53.355 53.355 0 0 1 62.088 19.385 Q 62.622 17.386 63.233 15.845 Q 63.958 14.013 64.751 12.734 A 11.186 11.186 0 0 1 65.308 11.914 A 15.145 15.145 0 0 1 66.113 10.925 Q 66.787 10.169 67.432 9.693 Q 68.457 8.936 69.336 8.716 Q 69.945 8.564 70.413 8.517 A 3.917 3.917 0 0 1 70.801 8.496 A 4.607 4.607 0 0 1 72.56 8.821 Q 73.614 9.252 74.366 10.254 A 6.193 6.193 0 0 1 75.375 12.378 Q 75.684 13.522 75.684 14.942 A 21.409 21.409 0 0 1 75.453 17.986 Q 75.233 19.519 74.801 21.199 A 37.017 37.017 0 0 1 74.634 21.826 A 66.86 66.86 0 0 1 73.395 25.806 A 90.712 90.712 0 0 1 71.778 30.127 A 166.247 166.247 0 0 1 69.818 34.784 A 211.755 211.755 0 0 1 67.554 39.771 A 1442.04 1442.04 0 0 1 65.058 45.062 A 1693.229 1693.229 0 0 1 62.403 50.635 A 148.97 148.97 0 0 0 61.988 55.347 A 438.061 438.061 0 0 0 61.67 60.108 A 67.288 67.288 0 0 1 62.191 58.827 Q 62.662 57.7 63.257 56.372 A 74.219 74.219 0 0 1 64.787 53.174 A 85.857 85.857 0 0 1 65.406 51.978 A 59.116 59.116 0 0 1 68.018 47.51 A 30.849 30.849 0 0 1 70.046 44.708 A 26.336 26.336 0 0 1 71.021 43.579 A 16.434 16.434 0 0 1 73.054 41.691 A 13.732 13.732 0 0 1 74.39 40.772 A 7.519 7.519 0 0 1 76.52 39.882 A 6.646 6.646 0 0 1 78.076 39.697 A 6.15 6.15 0 0 1 79.556 39.87 A 5.237 5.237 0 0 1 80.469 40.186 A 5.255 5.255 0 0 1 82.3 41.553 A 6.293 6.293 0 0 1 83.391 43.387 A 7.229 7.229 0 0 1 83.472 43.604 Q 83.887 44.776 83.887 46.143 A 15.239 15.239 0 0 1 83.74 48.205 A 19.646 19.646 0 0 1 83.423 49.927 A 90.411 90.411 0 0 1 82.373 54.053 A 79.116 79.116 0 0 0 81.324 58.252 A 20.265 20.265 0 0 0 80.948 60.537 A 16.238 16.238 0 0 0 80.86 62.207 A 5.195 5.195 0 0 0 80.999 63.44 A 3.928 3.928 0 0 0 81.592 64.771 Q 82.159 65.584 83.459 65.767 A 5.873 5.873 0 0 0 84.278 65.82 A 3.569 3.569 0 0 0 85.884 65.425 Q 86.377 65.179 86.863 64.781 A 6.615 6.615 0 0 0 86.963 64.697 A 12.441 12.441 0 0 0 88.257 63.41 Q 88.852 62.729 89.426 61.903 A 20.392 20.392 0 0 0 89.502 61.792 A 26.973 26.973 0 0 0 90.961 59.393 A 32.764 32.764 0 0 0 91.773 57.788 A 94.044 94.044 0 0 0 93.726 53.369 A 129.567 129.567 0 0 0 94.58 51.239 A 104.225 104.225 0 0 0 95.337 49.243 Q 96.045 47.315 96.485 46.143 Z M 117.871 57.813 L 117.481 57.813 A 15.68 15.68 0 0 1 113.707 57.371 A 13.803 13.803 0 0 1 111.89 56.787 A 13.449 13.449 0 0 1 107.447 53.931 A 13.102 13.102 0 0 1 104.561 49.696 A 14.969 14.969 0 0 1 104.492 49.536 A 13.952 13.952 0 0 1 103.47 45.218 A 16.715 16.715 0 0 1 103.418 43.897 A 13.464 13.464 0 0 1 103.826 40.649 A 15.031 15.031 0 0 1 103.882 40.43 A 9.949 9.949 0 0 1 104.974 37.815 A 9.202 9.202 0 0 1 105.323 37.28 Q 106.299 35.889 107.862 35.01 A 6.717 6.717 0 0 1 110.029 34.257 A 9.059 9.059 0 0 1 111.573 34.131 Q 113.33 34.131 115.039 34.839 Q 116.748 35.547 118.116 37.256 A 10.131 10.131 0 0 1 119.196 38.946 Q 119.85 40.213 120.337 41.87 Q 120.958 43.981 121.128 46.904 A 39.986 39.986 0 0 1 121.192 49.219 A 36.933 36.933 0 0 1 121.045 52.515 Q 120.899 54.151 120.508 55.713 A 10.851 10.851 0 0 0 122.701 55.087 A 9.218 9.218 0 0 0 123.902 54.492 A 11.535 11.535 0 0 0 126.538 52.368 A 14.382 14.382 0 0 0 128.341 49.928 A 16.152 16.152 0 0 0 128.565 49.536 A 30.689 30.689 0 0 0 129.967 46.646 A 34.264 34.264 0 0 0 130.176 46.143 L 132.08 46.631 Q 131.055 49.414 129.712 51.367 A 18.732 18.732 0 0 1 128.162 53.339 A 14.791 14.791 0 0 1 126.831 54.639 A 12.94 12.94 0 0 1 124.75 56.106 A 11.157 11.157 0 0 1 123.609 56.665 Q 121.924 57.373 120.117 57.617 A 22.733 22.733 0 0 1 118.311 62.11 A 14.856 14.856 0 0 1 115.874 65.474 A 13.914 13.914 0 0 1 115.576 65.772 A 12.134 12.134 0 0 1 111.841 68.237 A 11.31 11.31 0 0 1 108.678 69.053 A 14.105 14.105 0 0 1 107.08 69.141 A 11.381 11.381 0 0 1 103.424 68.521 A 13.385 13.385 0 0 1 102.661 68.237 A 11.235 11.235 0 0 1 99.11 65.909 A 13.164 13.164 0 0 1 98.658 65.454 A 12.866 12.866 0 0 1 96.739 62.801 A 16.755 16.755 0 0 1 95.777 60.718 A 15.56 15.56 0 0 1 94.97 57.693 Q 94.678 55.946 94.678 53.906 A 21.254 21.254 0 0 1 95.288 48.828 Q 95.899 46.338 96.997 44.116 Q 98.096 41.895 99.61 39.966 A 21.241 21.241 0 0 1 102.017 37.361 A 18.882 18.882 0 0 1 102.881 36.621 L 103.614 37.842 Q 102.491 38.867 101.465 40.381 A 21.758 21.758 0 0 0 100.037 42.83 A 25.178 25.178 0 0 0 99.61 43.726 A 21.539 21.539 0 0 0 98.291 47.583 A 17.146 17.146 0 0 0 97.803 51.611 A 26.038 26.038 0 0 0 97.944 54.399 Q 98.09 55.758 98.39 56.924 A 13.225 13.225 0 0 0 98.804 58.252 Q 99.805 60.938 101.367 62.573 A 9.604 9.604 0 0 0 103.558 64.305 A 8.584 8.584 0 0 0 104.883 64.917 A 11.912 11.912 0 0 0 107.272 65.523 A 10.108 10.108 0 0 0 108.692 65.625 Q 111.426 65.625 113.941 63.623 Q 116.455 61.621 117.871 57.813 Z M 70.899 10.498 Q 69.629 10.498 68.628 11.743 Q 67.901 12.648 67.277 14.094 A 18.84 18.84 0 0 0 66.822 15.259 A 27.936 27.936 0 0 0 66.17 17.377 Q 65.764 18.893 65.43 20.703 A 108.161 108.161 0 0 0 64.868 24.054 A 144.301 144.301 0 0 0 64.356 27.759 A 179.953 179.953 0 0 0 63.793 32.84 A 220.386 220.386 0 0 0 63.501 36.109 A 810.253 810.253 0 0 0 62.966 43.016 A 909.819 909.819 0 0 0 62.793 45.41 Q 65.088 41.016 67.066 36.694 A 129.034 129.034 0 0 0 69.337 31.436 A 107.807 107.807 0 0 0 70.508 28.418 A 79.613 79.613 0 0 0 71.82 24.591 A 61.391 61.391 0 0 0 72.827 21.021 A 33.319 33.319 0 0 0 73.381 18.357 Q 73.597 17.027 73.658 15.845 A 17.568 17.568 0 0 0 73.682 14.942 A 10.583 10.583 0 0 0 73.56 13.355 A 5.291 5.291 0 0 0 73.361 12.502 A 4.301 4.301 0 0 0 73.12 11.914 A 2.861 2.861 0 0 0 72.551 11.128 A 2.665 2.665 0 0 0 72.266 10.889 A 1.973 1.973 0 0 0 71.53 10.564 Q 71.257 10.502 70.941 10.498 A 3.479 3.479 0 0 0 70.899 10.498 Z M 131.885 86.621 A 136.841 136.841 0 0 0 131.661 78.896 A 150.34 150.34 0 0 0 131.592 77.759 A 440.989 440.989 0 0 0 130.908 68.604 Q 128.028 75.586 126.197 81.201 Q 124.559 86.222 124.386 90.423 A 23.854 23.854 0 0 0 124.366 91.406 Q 124.366 93.565 125.166 95.11 A 6.087 6.087 0 0 0 125.196 95.166 A 3.323 3.323 0 0 0 125.83 96.023 Q 126.544 96.704 127.608 96.728 A 3.467 3.467 0 0 0 127.686 96.729 A 2.961 2.961 0 0 0 129.322 96.24 Q 129.917 95.857 130.391 95.05 A 6.277 6.277 0 0 0 130.64 94.58 Q 131.038 93.749 131.326 92.523 A 18.996 18.996 0 0 0 131.543 91.455 A 20.028 20.028 0 0 0 131.752 89.86 Q 131.831 89.006 131.863 88.024 A 42.846 42.846 0 0 0 131.885 86.621 Z M 117.676 55.908 L 118.604 55.908 A 19.387 19.387 0 0 0 119.111 53.045 A 21.47 21.47 0 0 0 119.141 52.735 A 37.178 37.178 0 0 0 119.259 50.774 A 47.133 47.133 0 0 0 119.287 49.121 Q 119.215 46.319 118.83 44.209 A 18.361 18.361 0 0 0 118.531 42.847 Q 118.028 40.931 117.314 39.597 A 8.754 8.754 0 0 0 116.846 38.819 A 7.042 7.042 0 0 0 115.879 37.662 A 5.267 5.267 0 0 0 114.429 36.67 A 7.035 7.035 0 0 0 111.475 36.035 Q 110.157 36.035 109.033 36.597 A 6.154 6.154 0 0 0 107.08 38.135 Q 106.25 39.111 105.762 40.479 A 8.371 8.371 0 0 0 105.326 42.448 A 10.38 10.38 0 0 0 105.274 43.506 A 14.612 14.612 0 0 0 105.549 46.402 A 11.741 11.741 0 0 0 106.25 48.682 A 11.899 11.899 0 0 0 108.184 51.823 A 11.033 11.033 0 0 0 108.911 52.588 A 11.575 11.575 0 0 0 112.842 55.054 A 13.277 13.277 0 0 0 117.034 55.895 A 15.301 15.301 0 0 0 117.676 55.908 Z M 141.992 65.43 A 6.894 6.894 0 0 0 144.824 64.844 A 9.074 9.074 0 0 0 147.257 63.241 A 9.825 9.825 0 0 0 147.266 63.233 A 66.063 66.063 0 0 0 145.99 62.634 A 51.99 51.99 0 0 0 144.8 62.11 A 6.338 6.338 0 0 0 143.606 61.729 A 5.053 5.053 0 0 0 142.578 61.621 A 7.664 7.664 0 0 0 141.722 61.665 Q 140.817 61.768 140.294 62.106 A 1.689 1.689 0 0 0 140.015 62.329 A 3.295 3.295 0 0 0 139.657 62.747 Q 139.487 62.986 139.4 63.222 A 1.428 1.428 0 0 0 139.307 63.721 A 1.062 1.062 0 0 0 139.42 64.183 Q 139.574 64.504 139.939 64.841 A 3.678 3.678 0 0 0 139.942 64.844 Q 140.552 65.408 141.886 65.429 A 6.631 6.631 0 0 0 141.992 65.43 Z"/></g></svg>